<svg id="a342dd96-3f98-454e-9599-6e6ff058628a" data-name="Logo" xmlns="http://www.w3.org/2000/svg" viewBox="0 0 190.6 190.6">
  <title>logo</title>
  <path d="M205.6,184.2V374.8H396.2V184.2ZM389.3,368H212.4V191.1H389.3Z" transform="translate(-205.6 -184.2)"/>
  <path d="M341,358l-.7-.2a.6.6,0,0,1-.3-.6.7.7,0,0,1,.4-.6l.7-.4,1.3-.6c.4-.2.6-.6.6-1.3V342.7a4.3,4.3,0,0,0-.3-1.7,1.4,1.4,0,0,0-1.2-.9l-.4-.3a1,1,0,0,1-.2-.7.8.8,0,0,1,.6-.9l2.7-.7,2.9-.9a14.5,14.5,0,0,0,2.4-1l.3-.2h.3c.4,0,.5.2.5.6a7.2,7.2,0,0,1-.1,1.3,9.7,9.7,0,0,0-.1,1.6c0,.4,0,.6.1.6h.1a15.6,15.6,0,0,1,3.4-2.5,8.6,8.6,0,0,1,3.9-.9,4.4,4.4,0,0,1,2.9,1.2,6.7,6.7,0,0,1,1.9,2.8h.2a11.1,11.1,0,0,1,3.3-2.9,8.8,8.8,0,0,1,4.2-1.1,4.7,4.7,0,0,1,2.8.9,6.1,6.1,0,0,1,2.1,2.4,9.4,9.4,0,0,1,.7,3.9v11.1c0,.7.2,1.1.6,1.3l1.3.6.7.4a.9.9,0,0,1,.3.6.6.6,0,0,1-.3.6l-.6.2H367.4l-.5-.2a.6.6,0,0,1-.3-.6.9.9,0,0,1,.3-.6l.7-.4a1.9,1.9,0,0,0,.9-.5,1.3,1.3,0,0,0,.3-1V344.5a6.6,6.6,0,0,0-.3-2.1,2.8,2.8,0,0,0-.9-1.4,2.1,2.1,0,0,0-1.3-.5l-1.2.3a5.5,5.5,0,0,0-1.4.9,2.1,2.1,0,0,0-.6,1.7v10.9a1.9,1.9,0,0,0,.3,1.3l1.1.6.7.4a.9.9,0,0,1,.3.6.6.6,0,0,1-.3.6l-.6.2H354.5l-.5-.2a.6.6,0,0,1-.3-.6.9.9,0,0,1,.3-.6l.7-.4a1.9,1.9,0,0,0,.9-.5,1.3,1.3,0,0,0,.3-1V344.5a6.6,6.6,0,0,0-.3-2.1,2.5,2.5,0,0,0-.9-1.3,1.9,1.9,0,0,0-1.3-.5l-1.2.2-1.5.8a2.2,2.2,0,0,0-.5,1.6v11.1a2.3,2.3,0,0,0,.3,1.3,1.7,1.7,0,0,0,.9.6l.7.4a.8.8,0,0,1,0,1.2l-.5.2H341Z" transform="translate(-205.6 -184.2)"/>
  <path d="M327.6,358.5a11.4,11.4,0,0,1-5.5-1.3,10.2,10.2,0,0,1-5.3-9.2,11.8,11.8,0,0,1,.9-4.6,11.6,11.6,0,0,1,2.6-3.9,12.8,12.8,0,0,1,3.8-2.6,11.8,11.8,0,0,1,4.6-.9,12,12,0,0,1,5.7,1.4,11.5,11.5,0,0,1,4,3.9,9.5,9.5,0,0,1,1.5,5.2,13.2,13.2,0,0,1-1.3,6,10.2,10.2,0,0,1-4.1,4.4A13.1,13.1,0,0,1,327.6,358.5Zm1-2.3a2.4,2.4,0,0,0,1.5-.4,2.3,2.3,0,0,0,1.1-1.1,7.1,7.1,0,0,0,.9-2.7,27.5,27.5,0,0,0,.2-4.3,18.5,18.5,0,0,0-.5-4.9,10.2,10.2,0,0,0-1.5-3.3,2.9,2.9,0,0,0-2.3-1.2,2.7,2.7,0,0,0-1.2.3,2.1,2.1,0,0,0-1,.6,5.6,5.6,0,0,0-1.1,2.8,28.4,28.4,0,0,0-.4,4.7,17.6,17.6,0,0,0,.6,4.6,12.7,12.7,0,0,0,1.5,3.5A2.9,2.9,0,0,0,328.6,356.2Z" transform="translate(-205.6 -184.2)"/>
  <path d="M306.2,358.5a8,8,0,0,1-4.8-1.4,11,11,0,0,1-3.5-3.9,12.8,12.8,0,0,1-1.2-5.6,11.8,11.8,0,0,1,1.5-5.9,11.5,11.5,0,0,1,4.1-4.1A11.1,11.1,0,0,1,308,336a9.6,9.6,0,0,1,7.1,2.9,2.3,2.3,0,0,1,.3.9,1.6,1.6,0,0,1-.4.9,5.2,5.2,0,0,1-1,1.1,1.5,1.5,0,0,1-1.9.1l-.9-.6a10.6,10.6,0,0,0-2.7-1.8,4.6,4.6,0,0,0-2.3-.7,2.9,2.9,0,0,0-2.6,1.4c-.6,1-.8,2.6-.8,5a13.3,13.3,0,0,0,.6,4.2,5.4,5.4,0,0,0,2.2,2.7,5.9,5.9,0,0,0,3.4.9,6.7,6.7,0,0,0,2.6-.5,7.9,7.9,0,0,0,2.3-1.4l.5-.4h.5c.4,0,.5.3.5.8v.5a2.4,2.4,0,0,1-.2.8,8.3,8.3,0,0,1-1.8,2.4,12.8,12.8,0,0,1-3.1,2.4A8,8,0,0,1,306.2,358.5Z" transform="translate(-205.6 -184.2)"/>
  <path d="M291.8,359.5a4.1,4.1,0,0,1-3-1.2,4.2,4.2,0,0,1-1.3-3.1,4,4,0,0,1,1.3-3.1,3.8,3.8,0,0,1,3-1.3,4.2,4.2,0,0,1,3.2,1.3,4.4,4.4,0,0,1,1.3,3.1,4.3,4.3,0,0,1-4.5,4.3Z" transform="translate(-205.6 -184.2)"/>
  <path d="M373.9,262.5a5.9,5.9,0,0,1-1.7,4.2,5.8,5.8,0,0,1-4.3,1.8,6,6,0,0,1-6.1-6,6,6,0,0,1,1.7-4.4,5.9,5.9,0,0,1,4.4-1.8,5.8,5.8,0,0,1,4.3,1.8A6,6,0,0,1,373.9,262.5Z" transform="translate(-205.6 -184.2)"/>
  <path d="M349.8,262.5a5.6,5.6,0,0,1-1.8,4.2,5.7,5.7,0,0,1-4.3,1.8,5.8,5.8,0,0,1-4.3-1.8,5.5,5.5,0,0,1-1.7-4.2,5.7,5.7,0,0,1,1.7-4.4,5.8,5.8,0,0,1,4.3-1.8,5.7,5.7,0,0,1,4.3,1.8A5.7,5.7,0,0,1,349.8,262.5Z" transform="translate(-205.6 -184.2)"/>
  <path d="M379.9,323.4a1,1,0,0,1-.7,1,4,4,0,0,1-1.7.3l-3.7-.2-2.7-.3-3-.2H343.7l-2.9.2-3,.3-3.7.2a4.8,4.8,0,0,1-1.8-.3,1.1,1.1,0,0,1-.6-1,1.4,1.4,0,0,1,.9-1.4l1.8-.6a12.2,12.2,0,0,0,3.9-1.5,3.6,3.6,0,0,0,1.3-3V292.4a12.9,12.9,0,0,0-1.2-5.7,4.9,4.9,0,0,0-4.2-3l-1.2-.2h-7.4c-2.1,0-3.3.3-3.6,1a5,5,0,0,1-.3,1.4l-.3,1.9c0,.8-.1,1.5-.1,2.2a25.4,25.4,0,0,1-2.6,11.3,23.7,23.7,0,0,1-7,8.3,16.1,16.1,0,0,1-9.5,3.1,17.7,17.7,0,0,1-6.4-1.2,14.8,14.8,0,0,0-3.2,2.1c-1.2,1.1-1.7,2-1.7,2.9a3.7,3.7,0,0,0,1.7,3,14.8,14.8,0,0,0,5.3,1.9,57.2,57.2,0,0,0,8.5,1.1q11.1.6,16.5,3.6t5.4,7.8H328a10.7,10.7,0,0,0-4.7,1,8.7,8.7,0,0,0-2.6,1.6,6.3,6.3,0,0,0-1.6-2.4,13.1,13.1,0,0,0-5.8-2.8,58.5,58.5,0,0,0-10.3-1.5l-5.1-.5a27.8,27.8,0,0,0-7.2,6.5,14.6,14.6,0,0,0-2.3,8.2,9.7,9.7,0,0,0,1.4,5,6.5,6.5,0,0,0-4.6,6.1c0,.4.1.8.1,1.2-3.9-2.6-5.9-6.1-5.9-10.5a13.9,13.9,0,0,1,1-5.3,8.8,8.8,0,0,1,3-3.7l4.5-3.7,5.6-4.4a22.8,22.8,0,0,1-6.2-1.9,7,7,0,0,1-4.4-6.7,3.6,3.6,0,0,1,.7-2.2,8.4,8.4,0,0,1,2.1-2.2l4.1-3.2,1.9-1.7.7-.9a23.1,23.1,0,0,1-6.8-6.4,15.8,15.8,0,0,1-2.8-9.1,17.7,17.7,0,0,1,2.9-9.9l.6-.7.3.2a18.9,18.9,0,0,0,6.1,2.7,16.1,16.1,0,0,0-1.3,6.3,19.3,19.3,0,0,0,1.6,7.7,13.7,13.7,0,0,0,4.2,5.7,9.2,9.2,0,0,0,5.8,2.1c3,0,5.5-1.6,7.5-4.6a20.7,20.7,0,0,0,3-11.5,13.3,13.3,0,0,0-1.6-6.5,14.8,14.8,0,0,0-4.2-5,9.6,9.6,0,0,0-5.6-1.8h-.2a17.6,17.6,0,0,1-5.6-2.4,23,23,0,0,1,7.4-1.2,18,18,0,0,1,6,.9l5.2,1.6a22.1,22.1,0,0,0,4.5,1l3.5.2h3.7l4.4-.2,2.7-.2a26.3,26.3,0,0,0,8.3-2.8,50.6,50.6,0,0,0,4.7-3,2.8,2.8,0,0,1,1.7-.9c.4,0,.7.2.7.6s-.1,1.9-.3,3.8-.4,4-.6,6.3-.2,4.3-.2,6.1v27a3.2,3.2,0,0,0,1.4,3,11.7,11.7,0,0,0,3.7,1.6,23.5,23.5,0,0,0,5.3,0,15.5,15.5,0,0,0,3.8-1.6,3.4,3.4,0,0,0,1.4-3V289c0-1.8-.1-3.9-.3-6.1s-.3-4.4-.5-6.3-.3-3.1-.3-3.8.2-.6.7-.6a3.1,3.1,0,0,1,1.7.9,39.8,39.8,0,0,0,4.7,3,25.1,25.1,0,0,0,7.9,3c.7.1,1.1.5,1.1,1.4a1.6,1.6,0,0,1-.3,1.1,1.9,1.9,0,0,1-.9.5,5.2,5.2,0,0,0-4.3,3,14.8,14.8,0,0,0-1.1,5.7v26.1a3.3,3.3,0,0,0,1.3,3,12.5,12.5,0,0,0,3.8,1.5l1.9.6A1.4,1.4,0,0,1,379.9,323.4Z" transform="translate(-205.6 -184.2)"/>
  <path d="M250.4,359.2a25.6,25.6,0,0,1-14.4-4,27.3,27.3,0,0,1-9.6-11.5,40.6,40.6,0,0,1-3.5-17.2,32.2,32.2,0,0,1,4-15.8,32.6,32.6,0,0,1,10.6-11.5,25.6,25.6,0,0,1,14.4-4.3,22.7,22.7,0,0,1,10.6,2.4,18,18,0,0,1,7.3,6.6,18.3,18.3,0,0,1,2.6,9.9c0,3.1-1.5,4.6-4.5,4.6H236.3a3.4,3.4,0,0,0-2.9,1.1q-.9,1.2-.9,4.5a27.6,27.6,0,0,0,3.2,13.1,25.5,25.5,0,0,0,8.4,9.4,19.8,19.8,0,0,0,11.5,3.6,19,19,0,0,0,14.7-6.8l.9-1,.8-.2q1.2,0,1.2,1.5t-2.7,6.3a23.5,23.5,0,0,1-5.4,5,27.2,27.2,0,0,1-6.9,3.2A28.8,28.8,0,0,1,250.4,359.2Zm-13.8-45.4h13.6l6.2-.2a38.6,38.6,0,0,0,4.9-.6,1.2,1.2,0,0,0,1-1,7.2,7.2,0,0,0,.2-2.3,9,9,0,0,0-3.8-7.4,13.8,13.8,0,0,0-9.1-3.1,14,14,0,0,0-6.9,2,20.1,20.1,0,0,0-5.7,5.1,9.9,9.9,0,0,0-2.2,6Q234.8,313.8,236.6,313.8Z" transform="translate(-205.6 -184.2)"/>
  <path d="M376.2,202.4a7.3,7.3,0,0,0-4.1-1,12.5,12.5,0,0,0-4.8,1,30.7,30.7,0,0,0-4.8,2.9,20,20,0,0,0-4.2,4.2c-.2,0-.3-.1-.3-.2s.2-4,.2-5.3.1-2.4.1-3.4a15.3,15.3,0,0,0,.1-1.8c0-.5-.2-.8-.6-.8a1.1,1.1,0,0,0-.7.2l-1.1.6-5.3,3.1a36.1,36.1,0,0,1-6.6,2.8l-1.1.2h-2.7l-15.4.2-3.4-.2a21.5,21.5,0,0,1-4.6-1l-5.1-1.6a18.2,18.2,0,0,0-6.1-.9,22.5,22.5,0,0,0-10.2,2.4,20.6,20.6,0,0,0-7.7,6.6,16.9,16.9,0,0,0-2.9,9.9,15.8,15.8,0,0,0,2.8,9.1,20.8,20.8,0,0,0,6.8,6.4l-.7.9-2,1.7-4.1,3.2a13.9,13.9,0,0,0-2.1,2.2,4.3,4.3,0,0,0-.6,2.2,6.9,6.9,0,0,0,4.4,6.7,20.7,20.7,0,0,0,6.2,1.9l-5.6,4.4-4.5,3.7a8.8,8.8,0,0,0-3,3.7,12.2,12.2,0,0,0-1,5.3c0,4.4,2,7.9,5.9,10.5s9.4,3.9,16.2,3.9a18.7,18.7,0,0,0,5.7-.8,12.6,12.6,0,0,0-3.1-3,9.5,9.5,0,0,0-1.7-1h0a15.8,15.8,0,0,1-9.7-3.3,9.8,9.8,0,0,1-4.3-8.1,14.6,14.6,0,0,1,2.3-8.2,25.4,25.4,0,0,1,7.1-6.4l5.1.4a55.7,55.7,0,0,1,10.3,1.5,13.5,13.5,0,0,1,5.9,2.8,5.9,5.9,0,0,1,1.8,4.4,17,17,0,0,1-1.7,7.7,15.6,15.6,0,0,1-3.2,4.7l1.6.2,2.9.2a32.4,32.4,0,0,0,5.4-7.5,19,19,0,0,0,2.3-9.2c0-3.6-1.8-6.5-5.4-8.5s-9-3.2-16.4-3.6a55.4,55.4,0,0,1-8.5-1.1,14.1,14.1,0,0,1-5.3-1.9,3.8,3.8,0,0,1-1.8-3c0-.9.6-1.8,1.8-2.9a14.8,14.8,0,0,1,3.2-2.1,17.3,17.3,0,0,0,6.4,1.2,16.6,16.6,0,0,0,9.5-3.1,22.5,22.5,0,0,0,6.9-8.3,24.2,24.2,0,0,0,2.7-11.3,17,17,0,0,1,.1-2.2l.3-1.9a10.6,10.6,0,0,1,.3-1.4c.2-.7,1.4-1,3.6-1h15l1.5.2a5,5,0,0,1,4,3,15.6,15.6,0,0,1,1,5.6v25.3a3.6,3.6,0,0,1-1.2,2.8,6.8,6.8,0,0,1-3.4,1.8l-2,.6a1.3,1.3,0,0,0-.8,1.3,1,1,0,0,0,.6,1,4.2,4.2,0,0,0,1.8.3l3.8-.2,2.7-.3H354a31.9,31.9,0,0,1,4.9.3,38.2,38.2,0,0,0,5.5.3c1.6,0,2.4-.4,2.4-1.3a1.1,1.1,0,0,0-.7-1.2,7.3,7.3,0,0,0-2.1-.7,23.1,23.1,0,0,1-4.6-2,2.9,2.9,0,0,1-1.7-2.6V219.4q0-6,2.7-8.1a9.4,9.4,0,0,1,5.6-2l1.9.3,1.9.8,1.8.7,1.6.3a3,3,0,0,0,2.2-1,9.3,9.3,0,0,0,1.8-2.6,6.5,6.5,0,0,0,.6-2.6A3.3,3.3,0,0,0,376.2,202.4Zm-63.6,27.5c-2,3-4.5,4.6-7.6,4.6a8.7,8.7,0,0,1-5.7-2.1,13.7,13.7,0,0,1-4.2-5.7,17.7,17.7,0,0,1-1.6-7.7,15.1,15.1,0,0,1,1.5-6.8,13.6,13.6,0,0,1,4-5.1,7.6,7.6,0,0,1,5.2-2,9.8,9.8,0,0,1,5.6,1.8,14.8,14.8,0,0,1,4.2,5,14.5,14.5,0,0,1,1.6,6.5A20.7,20.7,0,0,1,312.6,229.9Z" transform="translate(-205.6 -184.2)"/>
  <path d="M222.6,282.9a9.3,9.3,0,0,1-2.6-.3,1.1,1.1,0,0,1-.9-1c0-1,1.3-1.7,3.9-2.2a13.4,13.4,0,0,0,6.8-2.8c1.4-1.2,2.1-3.3,2.1-6.2v-54c0-2.9-.6-4.9-1.7-6.1s-3.3-2.1-6.3-2.7a7.6,7.6,0,0,1-3-.9,1.7,1.7,0,0,1-1-1.5c0-.4.3-.8,1-1a8.5,8.5,0,0,1,2.5-.3h7.7l6.3.2h23.7l6.9-.2h3.3l1.3.3c.5.1.8.4.8.8l1.2,6.7a32.5,32.5,0,0,1,.6,5.7c0,.7-.1,1.2-.5,1.4a2.5,2.5,0,0,1-1.1.4,1.2,1.2,0,0,1-.9-.3l-.5-.9q-.6-2.1-1.2-3.9a5.6,5.6,0,0,0-1.4-2.7,8.1,8.1,0,0,0-3.7-2.6,15.5,15.5,0,0,0-4.3-.7H245.8a5.8,5.8,0,0,0-2.6,1.1,3.3,3.3,0,0,0-1.7,2.8v25.4a2.8,2.8,0,0,0,.7,1.9,1.8,1.8,0,0,0,1.5.7h11.9q3.4,0,4.8-1.2a10.4,10.4,0,0,0,2.1-4.6c.5-1.8,1.2-2.7,2.2-2.7a1.9,1.9,0,0,1,1,.5,1.6,1.6,0,0,1,.5,1.4v2.2c-.1,1.1-.1,2.3-.2,3.5s-.1,2.1-.1,2.7V245c.1,1.3.1,2.6.2,3.8v2.3a3,3,0,0,1-.2,1.4.8.8,0,0,1-.9.6c-1.2,0-2.1-1.2-2.7-3.8a9.8,9.8,0,0,0-1.9-4.1,4.5,4.5,0,0,0-3.6-1.3H245.6a8,8,0,0,0-3.1.5,3,3,0,0,0-1,2.6v23c0,3.1.7,5.2,1.9,6.3s3.3,1.8,6,1.8h8.9a38.2,38.2,0,0,0,6.4-.4,10.1,10.1,0,0,0,4.5-1.7,12.5,12.5,0,0,0,3.5-3.4c1-1.5,2.1-3.4,3.4-5.8a3.6,3.6,0,0,1,.8-1.2,1.5,1.5,0,0,1,1.1-.4,2.1,2.1,0,0,1,1,.6,1.8,1.8,0,0,1,.3,1.1,21,21,0,0,1-.6,3.8c-.4,1.8-.9,3.7-1.5,5.6a43.1,43.1,0,0,1-1.6,4.5,10.7,10.7,0,0,1-.7,1.5,1,1,0,0,1-1,.6H263.2l-9.3-.3-8.7-.2H231.8l-4,.4Z" transform="translate(-205.6 -184.2)"/>
</svg>
